<?xml version="1.0" encoding="UTF-8"?>
<svg id="Layer_1" xmlns="http://www.w3.org/2000/svg" version="1.1" viewBox="0 0 2000 2000">
  <!-- Generator: Adobe Illustrator 29.5.1, SVG Export Plug-In . SVG Version: 2.1.0 Build 141)  -->
  <defs>
    <style>
      .st0 {
        fill: #f1f1f1;
      }

      .st1 {
        fill: #212121;
      }
    </style>
  </defs>
  <rect class="st1" x="-20" y="-31.3" width="2045.41" height="2076"/>
  <path class="st0" d="M1158.81,1440.61c5.24-5.24,9.59-13.97,13.11-26.23l49.83-264.89c-71.71,54.22-126.79,81.3-165.22,81.3h-257.02c-68.19,0-125.89-18.36-173.1-55.07-15.73-13.97-37.17-37.13-64.25-69.5-27.13-32.33-44.17-56.38-51.14-72.12-22.74-45.45-27.99-98.76-15.74-159.98l57.7-306.85c13.97-61.18,40.2-114.5,78.68-159.98,52.45-55.94,110.15-104,173.09-144.25,61.18-38.44,125.89-57.7,194.08-57.7h309.47c69.91,0,126.75,19.26,170.47,57.7,17.46,12.25,38.89,34.99,64.25,68.19,25.32,33.23,42.37,58.6,51.15,76.06,22.7,47.21,28.85,99.66,18.36,157.36l-170.47,868.1c-12.25,61.22-38.48,114.54-78.68,159.98-15.74,17.5-42.86,42.86-81.3,76.06-38.48,33.23-68.19,55.98-89.17,68.19-61.22,38.48-125.03,57.7-191.45,57.7h-280.62c-117.16,0-215.96-71.67-296.36-215.06-15.74-27.95-29.75-66.43-41.96-115.4l257.02-68.19,5.24,15.73c17.46,50.73,49.83,89.17,97.04,115.4,6.97,3.53,16.6,5.24,28.85,5.24h264.89c20.98,0,62.04-30.57,123.26-91.79ZM1279.45,847.89l57.7-296.36v-13.11c-19.26-47.21-41.1-70.81-65.57-70.81h-301.6c-12.26,0-35.86,13.11-70.81,39.34-34.99,26.23-57.7,48.11-68.19,65.57-3.53,7.01-6.15,14.88-7.87,23.61l-52.45,275.38c-3.53,17.5-4.38,28.85-2.62,34.09,6.97,19.26,17.46,35.41,31.47,48.52,13.97,13.11,26.23,19.67,36.72,19.67h254.4c24.46,0,41.06-2.62,49.83-7.87,71.67-48.93,118.02-88.27,139-118.02Z"/>
</svg>